<?xml version="1.0" encoding="utf-8"?>
<svg xmlns="http://www.w3.org/2000/svg" xmlns:v="https://vecta.io/nano" width="57" height="57" fill="none">
  <mask id="A" maskUnits="userSpaceOnUse" x="0" y="0" width="57" height="57" mask-type="alpha">
    <path fill="#d9d9d9" d="M.076.263h56v56h-56z"/>
  </mask>
  <g mask="url(#A)">
    <path d="M8.826 46.93c-.496 0-.911-.168-1.247-.503s-.503-.751-.503-1.247v-18.9l4.958-14.933a2.57 2.57 0 0 1 .963-1.283c.447-.311.963-.467 1.546-.467h12.425a12.22 12.22 0 0 0-.35 1.697l-.175 1.803H15.126l-3.208 9.683h17.325c1.011 1.595 2.343 2.965 3.996 4.113s3.393 1.974 5.221 2.479c-.661.194-1.186.574-1.575 1.137s-.583 1.215-.583 1.954c0 .875.306 1.619.919 2.231s1.356.919 2.231.919c.907 0 1.679-.306 2.314-.919a2.98 2.98 0 0 0 .953-2.231c0-.544-.107-1.04-.321-1.487s-.535-.826-.962-1.137h.467c1.322 0 2.537-.078 3.646-.233s2.285-.506 3.529-1.05V45.18c0 .496-.168.912-.503 1.247s-.751.503-1.247.503h-1.225c-.506 0-.914-.168-1.225-.503s-.467-.751-.467-1.247v-3.15H11.743v3.15c0 .496-.168.912-.503 1.247s-.751.503-1.247.503H8.826zm7.92-11.317c.904 0 1.657-.306 2.259-.919a3.06 3.06 0 0 0 .904-2.231c0-.907-.306-1.679-.919-2.314a2.98 2.98 0 0 0-2.231-.953c-.907 0-1.679.316-2.314.949a3.13 3.13 0 0 0-.953 2.304 2.99 2.99 0 0 0 .949 2.26c.633.603 1.401.904 2.304.904zM42.612 24.88a10.74 10.74 0 0 1-7.886-3.267c-2.178-2.178-3.267-4.812-3.267-7.903 0-3.053 1.089-5.669 3.267-7.846s4.803-3.267 7.875-3.267c3.111 0 5.746 1.079 7.904 3.238s3.238 4.793 3.238 7.904-1.085 5.746-3.256 7.904-4.795 3.238-7.875 3.238zm.135-4.433c.37 0 .681-.117.933-.35s.379-.544.379-.933-.128-.7-.385-.933-.556-.35-.898-.35c-.428.039-.749.175-.963.408s-.321.535-.321.904.117.671.35.904.535.35.904.35zm-1.021-4.958h2.042V7.146h-2.042v8.342z" fill="#f7f7f7"/>
  </g>
</svg>