<?xml version="1.0" encoding="utf-8"?>
<svg xmlns="http://www.w3.org/2000/svg" xmlns:v="https://vecta.io/nano" width="56" height="56" fill="none">
  <path d="M46.667 14h-9.333V9.333c0-2.567-2.1-4.667-4.667-4.667h-9.333c-2.567 0-4.667 2.1-4.667 4.667V14H9.334c-2.567 0-4.667 2.1-4.667 4.667v28c0 2.567 2.1 4.667 4.667 4.667h37.333c2.567 0 4.667-2.1 4.667-4.667v-28c0-2.567-2.1-4.667-4.667-4.667zM23.334 9.333h9.333V14h-9.333V9.333zm14 25.667h-7v7h-4.667v-7h-7v-4.667h7v-7h4.667v7h7V35z" fill="#081126"/>
</svg>