<?xml version="1.0" encoding="utf-8"?>
<svg xmlns="http://www.w3.org/2000/svg" xmlns:v="https://vecta.io/nano" width="56" height="56" fill="none">
  <path d="M28 23.333c-2.567 0-4.764-.914-6.592-2.742S18.666 16.567 18.666 14s.914-4.764 2.742-6.592S25.433 4.667 28 4.667s4.764.914 6.592 2.742 2.742 4.025 2.742 6.592-.914 4.764-2.742 6.592-4.025 2.742-6.592 2.742zm-5.25 23.333c-.506 0-.923-.166-1.253-.497s-.495-.749-.497-1.253.166-.923.497-1.253a1.71 1.71 0 0 1 1.253-.497h4.433l-1.633 3.5h-2.8zM9.333 51.333V35.525c0-1.322.331-2.537.992-3.645a6.93 6.93 0 0 1 2.742-2.597c2.333-1.167 4.755-2.061 7.264-2.683s5.066-.933 7.67-.933a36.06 36.06 0 0 1 3.53.175 25.28 25.28 0 0 1 3.47.583L29.341 38.5H22.75c-1.789 0-3.306.622-4.55 1.867s-1.867 2.761-1.867 4.55.622 3.306 1.867 4.55 2.761 1.867 4.55 1.867H9.333zm30.217 0V27.825l1.722.672 1.661.786a6.91 6.91 0 0 1 2.742 2.597c.661 1.109.992 2.324.992 3.645v11.142c0 1.283-.456 2.382-1.37 3.297A4.48 4.48 0 0 1 42 51.333h-2.45z" fill="#081126"/>
</svg>