<?xml version="1.0" encoding="utf-8"?>
<svg xmlns="http://www.w3.org/2000/svg" xmlns:v="https://vecta.io/nano" width="42" height="42" fill="none">
  <path d="M31.967 28.642L38.15 22.4c1.244-1.244 2.197-2.664 2.858-4.258A12.97 12.97 0 0 0 42 13.125c0-3.656-1.273-6.757-3.82-9.305S32.532-.002 28.875 0a12.97 12.97 0 0 0-5.017.992c-1.594.661-3.014 1.614-4.258 2.858l-6.242 6.183 18.608 18.608zM13.125 42a12.97 12.97 0 0 0 5.017-.992c1.594-.661 3.014-1.614 4.258-2.858l6.242-6.183-18.608-18.608L3.85 19.6c-1.244 1.244-2.197 2.664-2.858 4.258A12.97 12.97 0 0 0 0 28.875c0 3.656 1.274 6.757 3.822 9.303s5.649 3.82 9.303 3.822z" fill="#081126"/>
</svg>